# xmcd CD database file
#
# Track frame offsets:
#	150
#	20861
#	36760
#	56809
#	71652
#	85951
#	112664
#	125675
#	142189
#	155722
#
# Disc length: 2343 seconds
#
# Revision: 0
# Processed by: cddbd v1.5.2PL0 Copyright (c) Steve Scherf et al.
# Submitted via: CDex 1.77
#
DISCID=9309250a
DTITLE=Canyon - The First
DYEAR=1900
DGENRE=Country
TTITLE0=Canyon - Back were you belong (38 Special cover)
TTITLE1=Canyon - Beer for my horses (Toby Keith cover)
TTITLE2=Canyon - Born to be wild (Steppenwolf cover)
TTITLE3=Canyon - Every River (Brooks and Dunn cover)
TTITLE4=Canyon - I want my goodbye back (Ty Herndon cover)
TTITLE5=Canyon - Rockin'in the free world (Neil Young cover)
TTITLE6=Canyon - Little did i know (Sammy Kershaw cover)
TTITLE7=Canyon - Somebody like you (Keith Urban cover)
TTITLE8=Canyon - What i do best (Marty Stuart cover)
TTITLE9=Canyon - That Summer (Garth Brooks cover)
EXTD=
EXTT0=
EXTT1=
EXTT2=
EXTT3=
EXTT4=
EXTT5=
EXTT6=
EXTT7=
EXTT8=
EXTT9=
PLAYORDER=
